<?xml version="1.0" encoding="utf-8"?>
<!-- Generator: Adobe Illustrator 24.0.1, SVG Export Plug-In . SVG Version: 6.00 Build 0)  -->
<svg version="1.1" id="Camada_1" xmlns="http://www.w3.org/2000/svg" xmlns:xlink="http://www.w3.org/1999/xlink" x="0px" y="0px"
	 viewBox="0 0 27 31.3" style="enable-background:new 0 0 27 31.3;" xml:space="preserve">
<style type="text/css">
	.st0{fill:none;stroke:#FFFFFF;stroke-linejoin:round;stroke-miterlimit:10;}
	.st1{fill:#FFFFFF;}
</style>
<polygon class="st0" points="18.5,12.7 13.5,21.5 23.3,21.5 "/>
<polygon class="st0" points="8.6,12.7 3.7,21.5 13.5,21.5 "/>
<polygon class="st0" points="13.6,3.9 8.6,12.7 18.5,12.7 "/>
<g>
	<path class="st1" d="M13.5,1c0.1,0,0.1,0,0.2,0l11.5,2.6c0.5,0.1,0.8,0.5,0.8,1v16.6c0,0.3-0.2,0.6-0.4,0.8l-12.1,8l-12.1-8
		C1.2,21.9,1,21.6,1,21.2V4.6c0-0.5,0.3-0.9,0.8-1l11.5-2.6C13.4,1.1,13.4,1,13.5,1 M13.5,0c-0.1,0-0.3,0-0.4,0L1.6,2.7
		C0.7,2.9,0,3.7,0,4.6v16.6c0,0.7,0.3,1.3,0.9,1.7l12.6,8.4l12.6-8.4c0.6-0.4,0.9-1,0.9-1.7V4.6c0-0.9-0.7-1.7-1.6-2L13.9,0.1
		C13.8,0.1,13.6,0,13.5,0L13.5,0z"/>
</g>
</svg>
